<?xml version="1.0" standalone="no"?>
<!DOCTYPE svg PUBLIC "-//W3C//DTD SVG 20010904//EN"
 "http://www.w3.org/TR/2001/REC-SVG-20010904/DTD/svg10.dtd">
<svg version="1.0" xmlns="http://www.w3.org/2000/svg"
 width="1000.000000pt" height="1000.000000pt" viewBox="0 0 1000.000000 1000.000000"
 preserveAspectRatio="xMidYMid meet">
<metadata>
Created by potrace 1.11, written by Peter Selinger 2001-2013
</metadata>
<g transform="translate(0.000000,1000.000000) scale(0.100000,-0.100000)"
fill="#000000" stroke="none">
<path d="M7405 7783 c-97 -35 -162 -102 -190 -196 -20 -69 -19 -116 6 -189
l20 -62 -1039 -1038 -1038 -1039 -65 21 c-240 82 -461 -139 -379 -379 l21 -65
-293 -292 -293 -293 -679 342 -678 342 -2 70 c-4 171 -125 289 -296 290 -62 0
-85 -5 -132 -28 -107 -53 -162 -143 -163 -267 0 -62 5 -85 28 -132 32 -66 90
-120 154 -144 l43 -17 0 -957 0 -957 -43 -17 c-156 -59 -229 -254 -154 -408
32 -64 80 -111 146 -142 64 -29 178 -29 242 0 140 65 210 223 162 366 l-19 57
711 711 712 712 1509 -755 1509 -755 0 -69 c1 -167 124 -288 295 -288 123 0
214 56 267 163 23 47 28 70 28 132 -1 122 -56 215 -161 266 l-54 26 0 2208 0
2208 54 26 c105 51 161 144 161 266 0 85 -21 142 -74 203 -71 81 -213 117
-316 80z m25 -2784 l0 -2207 -35 -12 c-20 -7 -57 -28 -82 -47 l-47 -36 -1485
742 -1484 743 277 277 277 277 57 -19 c99 -33 213 -9 295 62 81 72 117 213 79
316 l-18 50 1044 1046 1044 1046 39 -15 39 -15 0 -2208z m-4045 -526 c360
-181 655 -330 655 -333 0 -3 -310 -315 -689 -694 l-689 -689 -38 15 -39 16 -3
960 -2 960 53 26 c30 14 62 35 72 46 10 11 20 20 22 20 1 0 298 -147 658 -327z"/>
</g>
</svg>
